<svg width="24" height="24" viewBox="0 0 24 24" fill="none" xmlns="http://www.w3.org/2000/svg">
<g id="Icon_search">
<path id="Shape" fill-rule="evenodd" clip-rule="evenodd" d="M10.5 3C14.6421 3 18 6.35786 18 10.5C18 12.3009 17.3653 13.9535 16.3073 15.2464L20.8765 19.8159C21.1694 20.1088 21.1694 20.5836 20.8765 20.8765C20.5836 21.1694 20.1088 21.1694 19.8159 20.8765L15.2464 16.3073C13.9535 17.3653 12.3009 18 10.5 18C6.35786 18 3 14.6421 3 10.5C3 6.35786 6.35786 3 10.5 3ZM10.5 4.5C7.18629 4.5 4.5 7.18629 4.5 10.5C4.5 13.8137 7.18629 16.5 10.5 16.5C13.8137 16.5 16.5 13.8137 16.5 10.5C16.5 7.18629 13.8137 4.5 10.5 4.5Z" fill="#A6A6A6"/>
</g>
</svg>
