<svg width="40" height="40" viewBox="0 0 40 40" fill="none" xmlns="http://www.w3.org/2000/svg">
<path d="M19.9825 30C18.5209 29.9851 17.075 29.8958 15.6369 29.628C14.5739 29.4272 13.55 29.1445 12.5887 28.6609C12.0728 28.4005 11.6039 28.0955 11.2053 27.6863C11.0802 27.5524 11.0177 27.4111 11.0099 27.2251C10.9708 25.9157 11.0411 24.6138 11.3381 23.3342C11.4788 22.7168 11.6508 22.1067 11.9712 21.5488C12.3151 20.9462 12.8544 20.5296 13.4719 20.1799C14.4176 19.6443 15.4571 19.3392 16.5279 19.1309C16.7702 19.0863 17.0203 19.0491 17.2626 19.0045C17.3486 18.9896 17.3955 19.0119 17.4502 19.0714C18.5209 20.1501 20.131 20.4403 21.5222 19.8005C21.9209 19.6219 22.2648 19.369 22.5618 19.0714C22.593 19.0342 22.6555 18.997 22.7024 19.0045C24.1093 19.1979 25.4693 19.5475 26.6885 20.2692C27.2982 20.6337 27.8218 21.0875 28.1267 21.7199C28.408 22.3001 28.58 22.9102 28.7129 23.5351C28.9708 24.7998 29.0411 26.0868 28.9786 27.3739C28.9786 27.4334 28.9473 27.5003 28.9083 27.5524C28.6034 27.9318 28.2048 28.2145 27.7828 28.46C26.7354 29.0626 25.5865 29.39 24.3907 29.6206C22.9369 29.8958 21.4675 29.9926 19.9825 30Z" fill="#B8E5FF"/>
<path d="M10.3829 26.9855C10.0422 26.9855 9.72434 27 9.39887 26.9855C8.3619 26.9418 7.32494 26.84 6.31068 26.6072C5.40239 26.3963 4.5168 26.1126 3.74475 25.5889C3.51011 25.4289 3.31331 25.2252 3.10138 25.0361C3.05597 24.9924 3.01812 24.927 3.01812 24.8688C2.95757 23.5886 3.04083 22.3157 3.38901 21.0719C3.51768 20.6209 3.66906 20.1845 3.97183 19.8062C4.31244 19.3771 4.75901 19.0716 5.251 18.8243C6.13659 18.3806 7.09029 18.1405 8.06671 18.0023C8.13483 17.9951 8.18024 18.0023 8.23323 18.0605C9.3913 19.2243 11.2155 19.2243 12.3735 18.0678C12.4114 18.0314 12.4719 18.0023 12.5249 18.0023C13.3651 18.1114 14.1901 18.3151 14.9697 18.6424C14.9773 18.6424 14.9849 18.657 15 18.6715C14.7729 18.7515 14.5534 18.8315 14.3339 18.9116C13.4483 19.2607 12.6233 19.7117 11.9572 20.3954C11.4804 20.8827 11.2003 21.4646 10.9884 22.0902C10.6705 23.0431 10.4888 24.025 10.4283 25.0288C10.3904 25.6616 10.3904 26.3017 10.3753 26.9345C10.3753 26.9564 10.3753 26.9782 10.3753 27L10.3829 26.9855Z" fill="#F94848"/>
<path d="M29.6088 26.9927C29.6088 26.9419 29.6088 26.8983 29.6088 26.8547C29.6391 25.3075 29.5105 23.7748 29.0564 22.2857C28.8218 21.5012 28.4737 20.7821 27.8455 20.2155C27.3839 19.7942 26.8617 19.4528 26.2865 19.1913C25.8627 19.0024 25.4314 18.8354 25 18.661C25.0151 18.6538 25.0454 18.6392 25.0757 18.6247C25.84 18.3123 26.6347 18.1235 27.452 18.0073C27.4974 18.0073 27.5655 18.0291 27.6033 18.0581C28.7764 19.2203 30.5851 19.2203 31.7581 18.0581C31.7884 18.0291 31.8489 18 31.8868 18C33.0674 18.1671 34.2025 18.4649 35.2242 19.0969C35.9356 19.54 36.3443 20.1719 36.5713 20.9492C36.9043 22.0969 37.0102 23.2736 36.9951 24.4649C36.9951 24.5303 36.98 24.6029 36.9951 24.6683C37.0254 24.8862 36.9118 25.046 36.7605 25.184C36.367 25.5545 35.9053 25.8232 35.4134 26.0412C34.3312 26.5133 33.1884 26.753 32.0154 26.8693C31.2586 26.9419 30.4867 26.9564 29.7299 27C29.6997 27 29.6694 27 29.6315 27L29.6088 26.9927Z" fill="#F94848"/>
<path d="M20.0639 18C18.6429 17.9546 17.5955 17.3494 16.8264 16.2297C15.6398 14.5124 15.7424 12.0613 17.0608 10.4499C18.6869 8.46027 21.5141 8.52079 23.0377 10.6164C24.1363 12.1294 24.2828 13.8013 23.5357 15.5186C22.9937 16.7744 22.0562 17.599 20.7304 17.9017C20.4887 17.9546 20.2323 17.9697 20.0639 17.9924V18Z" fill="#DCDCDC"/>
<path d="M32.9923 13.0892C32.9617 14.285 32.5402 15.3844 31.5822 16.203C30.2027 17.3827 28.302 17.2383 27.0605 15.866C25.6503 14.3091 25.6427 11.6848 27.0605 10.1279C28.5473 8.49074 30.9384 8.65927 32.2183 10.481C32.7394 11.2274 32.9923 12.07 33 13.0812L32.9923 13.0892Z" fill="#DCDCDC"/>
<path d="M7 12.9207C7.03065 11.7485 7.43682 10.6726 8.35645 9.8456C9.67458 8.66534 11.5368 8.72957 12.8013 9.98209C14.5256 11.7003 14.3647 14.7915 12.4794 16.3009C11.123 17.3848 9.22243 17.1921 8.04224 15.8352C7.34486 15.0323 7.01533 14.0769 7.00766 12.9127L7 12.9207Z" fill="#DCDCDC"/>
</svg>
