<svg width="146" height="30" viewBox="0 0 146 30" fill="none" xmlns="http://www.w3.org/2000/svg">
<g id="typeface">
<g id="Group 2250">
<path id="Vector" d="M19.2033 11.7969H15.4463V18.2836H19.2033V11.7969Z" fill="#292929"/>
<g id="Group 2249">
<path id="Vector_2" d="M121.876 17.0508V17.5681C121.876 18.2149 121.872 26.7083 121.868 27.4656L121.866 27.6991L122.095 27.6996C126.797 27.7023 133.619 27.7023 138.321 27.7023H145.781V17.0508H121.876ZM126.78 23.0458C126.778 22.5344 126.779 22.0226 126.779 21.4998V21.0085H140.881V23.6442C140.813 23.647 140.747 23.6488 140.681 23.6488C135.886 23.6506 132.19 23.6506 127.395 23.6497C127.277 23.6497 126.942 23.6497 126.81 23.6182C126.781 23.4869 126.78 23.1607 126.78 23.0458Z" fill="#292929"/>
<path id="Vector_3" d="M145.703 2.67383H140.867V16.3183H145.703V2.67383Z" fill="#292929"/>
<path id="Vector_4" d="M132.315 2.14258H126.273C122.685 2.14258 119.812 5.38639 119.812 9.05354C119.812 12.7207 122.73 16.068 126.318 16.068H132.36C135.948 16.068 138.867 12.7207 138.867 9.05354C138.867 5.38639 135.903 2.14258 132.315 2.14258ZM133.931 8.98922C133.931 10.4827 132.743 12.0615 131.282 12.0615H127.294C125.833 12.0615 124.644 10.4827 124.644 8.98922C124.644 7.49572 125.788 6.02001 127.249 6.02001H131.236C132.697 6.02047 133.931 7.49572 133.931 8.98922Z" fill="#292929"/>
<path id="Vector_5" d="M116.753 12.6869V3.29395H111.878V27.475H116.753V17.7819H119.096V12.6869H116.753Z" fill="#292929"/>
<path id="Vector_6" d="M109.712 7.94691V3.31543H91.8828V27.4773H109.712V22.8458H96.8355V17.7596H109.712V12.7914H96.8355V7.94691H109.712Z" fill="#292929"/>
<path id="Vector_7" d="M89.0571 3.31543H84.0107V27.4773H89.0571V3.31543Z" fill="#292929"/>
<path id="Vector_8" d="M60.0889 21.6494C51.028 24.6588 41.2678 24.6588 32.2064 21.6494C31.72 23.1799 31.2335 24.7108 30.7466 26.2412C40.7563 29.5653 51.5386 29.5653 61.5483 26.2412C61.0623 24.7108 60.5758 23.1803 60.0889 21.6494Z" fill="#292929"/>
<g id="Group">
<path id="Vector_9" d="M29.1811 3.29199H24.5605V27.5853H29.1811V3.29199Z" fill="#292929"/>
<path id="Vector_10" d="M19.0259 3.3002V27.5853H23.7416V3.29199H19.0259M18.2315 11.7781C18.0137 7.15939 14.529 3.43888 10.3694 3.43888H8.91623C4.57503 3.43888 1.04297 7.38748 1.04297 12.2411V18.2534C1.04297 23.1071 4.57503 27.0556 8.91623 27.0556H10.3694C14.7106 27.0556 18.2427 23.1071 18.2427 18.2534V11.7781M13.66 12.6622V17.9779C13.66 20.3887 11.9225 22.3507 9.78698 22.3507H9.45314C7.31757 22.3507 5.58011 20.3892 5.58011 17.9779V12.6622C5.58011 10.2513 7.31757 8.28932 9.45314 8.28932H9.78698C11.9225 8.28932 13.66 10.2508 13.66 12.6622Z" fill="#292929"/>
</g>
<path id="Vector_11" d="M82.0337 16.9458V3.31543H62.8872V7.92775H77.1136V12.3334H62.8872V27.4773H82.0337V22.865H67.8131V16.9458H82.0337Z" fill="#292929"/>
<path id="Vector_12" d="M53.0544 3.16211L53.0634 6.95789H39.2297V3.16211H34.0869V19.8638H58.2061V3.16211H53.0544ZM39.2074 15.3738V11.4854H53.0544V15.3738H39.2074Z" fill="#292929"/>
</g>
</g>
</g>
</svg>
