<svg width="38" height="38" viewBox="0 0 38 38" fill="none" xmlns="http://www.w3.org/2000/svg">
<path d="M31.7655 13.8542C33.7876 13.8542 35.4269 12.2149 35.4269 10.1927C35.4269 8.17054 33.7876 6.53125 31.7655 6.53125C29.7433 6.53125 28.104 8.17054 28.104 10.1927C28.104 12.2149 29.7433 13.8542 31.7655 13.8542Z" fill="#292929"/>
<path d="M37.38 18.6045H30.7566C30.7566 25.1401 25.4917 30.4924 18.9985 30.4924C12.5053 30.4924 7.24213 25.1401 7.24213 18.6045H0.618652C0.618652 28.8228 8.84812 37.1592 19.0002 37.1592C29.1522 37.1592 37.3817 28.8228 37.3817 18.6045H37.38Z" fill="#292929"/>
<path d="M21.3648 16.1309H16.2788L17.6477 22.3831C17.7848 23.0226 18.3281 23.4538 19.0002 23.4538C19.6722 23.4538 20.2155 23.0242 20.3526 22.3831L21.7215 16.1309H21.3648Z" fill="url(#paint0_linear_11948_130180)"/>
<path d="M20.9425 13.9159C20.4245 13.3979 19.7338 13.1123 19 13.1123C17.4858 13.1123 16.2539 14.3442 16.2539 15.8584C16.2539 17.3726 17.4858 18.6045 19 18.6045C20.5142 18.6045 21.7461 17.3726 21.7461 15.8584C21.7461 15.1246 21.4605 14.4355 20.9425 13.9159Z" fill="#F91F15"/>
<defs>
<linearGradient id="paint0_linear_11948_130180" x1="19.0002" y1="16.1309" x2="19.0002" y2="23.4538" gradientUnits="userSpaceOnUse">
<stop stop-color="#BC0017"/>
<stop offset="0.11" stop-color="#C30416"/>
<stop offset="0.28" stop-color="#D90F16"/>
<stop offset="0.47" stop-color="#F91F15"/>
</linearGradient>
</defs>
</svg>
